<?xml version="1.0" standalone="no"?>
<!DOCTYPE svg PUBLIC "-//W3C//DTD SVG 20010904//EN"
 "http://www.w3.org/TR/2001/REC-SVG-20010904/DTD/svg10.dtd">
<svg version="1.0" xmlns="http://www.w3.org/2000/svg"
 width="500.000000pt" height="500.000000pt" viewBox="0 0 500.000000 500.000000"
 preserveAspectRatio="xMidYMid meet">
<metadata>
Created by potrace 1.16, written by Peter Selinger 2001-2019
</metadata>
<g transform="translate(0.000000,500.000000) scale(0.100000,-0.100000)"
fill="#3abff8" stroke="none">
<path d="M2374 4207 c-8 -4 -19 -5 -25 -2 -5 4 -17 1 -25 -6 -8 -7 -35 -13
-59 -13 -25 -1 -45 -4 -45 -8 0 -4 -7 -4 -17 -1 -9 4 -14 2 -11 -3 4 -5 -11
-17 -33 -26 -27 -11 -39 -13 -39 -5 0 7 -4 6 -10 -3 -5 -8 -10 -12 -10 -7 0 4
-9 -2 -21 -14 -13 -13 -28 -19 -41 -16 -11 3 -17 3 -14 0 9 -9 -42 -44 -61
-41 -10 2 -18 -3 -18 -9 0 -17 -73 -66 -85 -58 -6 4 -9 2 -8 -3 2 -5 -29 -40
-68 -78 -39 -38 -93 -101 -121 -141 -28 -40 -53 -69 -57 -65 -4 3 -4 -1 -1 -9
5 -13 -5 -17 -56 -22 -113 -12 -201 -81 -258 -205 -13 -28 -28 -49 -33 -46 -4
3 -8 0 -8 -5 0 -6 3 -11 8 -11 11 0 2 -163 -11 -178 -5 -7 -16 -11 -23 -8 -8
3 -13 0 -11 -7 1 -7 -6 -11 -15 -11 -10 1 -16 -2 -13 -6 5 -9 -54 -56 -67 -52
-4 1 -7 -4 -6 -10 2 -7 -3 -12 -9 -10 -7 1 -13 -2 -13 -7 0 -13 -76 -91 -84
-86 -3 3 -4 2 -1 -2 3 -3 -2 -15 -12 -25 -9 -10 -21 -28 -28 -41 -6 -12 -17
-21 -24 -19 -7 1 -10 -2 -7 -7 8 -13 -4 -42 -15 -35 -5 3 -9 2 -8 -3 3 -20 -2
-34 -11 -28 -5 3 -8 0 -5 -7 7 -18 -31 -93 -39 -76 -3 7 -3 1 0 -13 3 -15 0
-32 -8 -40 -7 -8 -13 -20 -14 -26 -2 -30 -5 -34 -14 -28 -6 3 -10 2 -10 -4 0
-5 4 -11 9 -13 5 -2 4 -24 -3 -53 -8 -29 -15 -43 -19 -35 -4 8 -4 -3 0 -24 4
-28 3 -37 -6 -32 -8 5 -11 -21 -11 -93 0 -56 4 -103 10 -106 6 -3 7 -18 4 -32
-4 -15 -2 -28 6 -33 7 -4 14 -29 16 -56 2 -27 4 -49 4 -49 1 0 3 -10 6 -23 2
-13 11 -31 20 -39 8 -9 13 -24 11 -34 -3 -11 -1 -19 5 -19 5 0 7 -4 3 -9 -3
-5 2 -16 11 -25 8 -9 12 -21 8 -27 -5 -8 -3 -9 6 -4 8 5 11 3 8 -6 -2 -7 4
-22 13 -33 10 -10 16 -23 13 -28 -3 -4 0 -8 6 -8 6 0 9 -4 5 -9 -3 -6 3 -15
14 -20 10 -6 22 -22 25 -36 4 -14 10 -24 14 -21 4 2 16 -8 26 -22 12 -15 14
-22 5 -17 -8 4 11 -17 41 -48 30 -31 57 -54 62 -51 4 2 12 -5 18 -16 6 -11 17
-20 25 -20 8 0 20 -9 27 -19 6 -10 17 -17 24 -14 6 2 24 -7 39 -21 15 -14 32
-26 36 -26 5 0 6 -7 3 -15 -4 -8 -1 -15 6 -15 6 0 8 -4 5 -10 -3 -5 -2 -10 3
-10 6 0 13 -7 16 -16 4 -9 2 -13 -5 -8 -8 4 -7 0 0 -15 7 -11 15 -21 19 -21 4
0 13 -9 20 -21 11 -17 11 -20 0 -14 -7 3 -4 -1 6 -9 11 -9 24 -16 29 -16 4 0
5 -5 2 -11 -9 -13 54 -70 85 -77 8 -2 18 -8 21 -13 3 -6 15 -12 25 -13 10 -2
19 -8 19 -15 0 -6 7 -16 15 -21 8 -5 11 -10 5 -10 -5 0 6 -14 25 -31 19 -17
28 -27 20 -23 -8 4 -2 -7 14 -24 32 -35 46 -42 26 -15 -7 10 4 0 25 -22 20
-22 34 -33 30 -25 -4 8 4 2 17 -14 14 -16 29 -26 35 -23 5 3 15 -3 23 -13 8
-10 17 -17 22 -14 4 3 8 0 8 -7 0 -7 3 -10 6 -6 3 3 15 -3 26 -13 11 -10 26
-16 32 -14 7 3 23 -4 35 -15 13 -12 28 -18 32 -15 5 3 9 2 9 -3 0 -4 14 -9 31
-9 17 -1 35 -7 39 -14 4 -7 13 -9 19 -6 6 4 11 4 11 -1 0 -4 57 -9 128 -11 70
-1 141 -5 157 -7 24 -4 26 -3 10 4 -11 5 -15 10 -8 10 18 1 63 -21 63 -31 0
-4 14 -8 31 -8 17 0 28 -4 24 -10 -3 -6 1 -7 10 -4 8 4 22 1 29 -5 8 -7 27
-14 43 -16 15 -2 28 -4 28 -5 0 -1 80 -2 178 -3 97 -1 177 1 177 5 0 3 9 4 20
1 12 -3 20 0 20 6 0 7 5 9 10 6 6 -4 17 -1 25 5 8 7 22 10 30 6 10 -4 14 -2 9
5 -4 8 1 9 15 4 14 -4 21 -2 21 6 0 7 3 9 7 6 3 -4 17 0 30 8 13 9 29 13 35 9
7 -5 8 -3 3 6 -6 10 -4 12 8 7 8 -3 25 3 38 14 25 21 34 24 23 8 -3 -6 6 -3
22 7 16 10 32 24 36 30 4 7 19 15 33 18 14 4 25 11 25 16 0 6 7 10 15 10 8 0
15 5 15 11 0 5 4 8 9 5 5 -3 12 1 15 10 4 9 9 15 12 12 3 -3 23 12 44 33 22
22 43 39 48 39 5 0 16 8 23 17 12 14 12 16 0 8 -10 -5 -12 -4 -7 4 4 6 11 9
16 6 4 -3 13 2 20 10 7 8 9 15 5 15 -5 0 14 21 41 47 27 26 42 43 34 39 -8 -4
-5 1 7 12 12 11 19 22 16 26 -4 3 -1 6 5 6 7 0 11 3 10 8 -2 4 7 18 19 31 12
13 20 28 17 33 -3 4 0 8 6 8 6 0 8 5 5 10 -3 6 -1 10 4 10 6 0 11 9 11 21 0
11 4 17 10 14 6 -3 7 1 4 9 -3 9 -2 16 4 16 12 0 23 33 26 76 2 17 10 41 19
54 12 17 15 35 10 66 -5 40 -3 44 19 53 14 5 28 17 31 25 4 9 12 15 19 14 7
-2 11 4 10 12 -2 8 0 12 4 8 10 -11 35 12 27 25 -3 5 -1 7 5 3 6 -3 21 8 34
25 13 17 33 41 45 55 12 13 19 24 16 24 -4 0 2 7 13 15 10 8 15 15 9 15 -5 0
1 7 13 16 12 8 20 20 17 25 -4 5 -1 9 5 9 6 0 9 4 6 9 -3 5 1 14 9 21 8 7 13
16 10 20 -3 4 4 19 15 32 11 14 16 28 13 32 -3 3 -1 6 5 6 6 0 9 7 5 17 -4 11
-3 14 5 9 8 -5 10 -2 6 8 -4 9 -1 16 6 16 7 0 10 7 6 15 -3 8 -2 15 3 15 4 0
8 16 9 36 1 20 6 42 13 50 6 7 8 18 4 24 -4 6 -1 18 7 27 15 19 19 245 4 278
-10 24 -16 48 -20 92 -1 17 -8 39 -16 47 -7 9 -9 16 -5 16 4 0 2 7 -5 15 -6 8
-8 20 -4 26 5 8 3 9 -6 4 -10 -6 -12 -4 -7 8 3 10 2 17 -3 17 -6 0 -10 7 -10
15 0 8 -5 15 -11 15 -6 0 -8 7 -5 16 4 10 2 13 -6 8 -8 -5 -9 -2 -5 9 3 10 3
17 -1 17 -4 0 -13 9 -20 21 -11 17 -11 20 0 13 14 -8 -20 36 -37 48 -5 4 -10
11 -10 15 0 4 -18 27 -40 50 -22 23 -48 53 -58 67 -10 15 -25 26 -34 26 -13 0
-12 3 5 18 18 16 19 23 11 66 -10 55 -17 69 -30 60 -5 -3 -25 8 -44 25 -45 39
-92 48 -140 25 -48 -22 -69 -57 -71 -113 -3 -59 -3 -59 -14 -41 -16 25 -11 93
10 128 11 18 34 41 52 52 37 22 44 46 18 62 -10 6 -16 17 -13 24 5 13 -22 60
-47 82 -8 8 -9 11 -3 7 8 -4 11 -1 7 9 -3 8 -12 17 -20 20 -8 3 -14 11 -14 17
0 6 -20 30 -45 53 -25 24 -45 48 -45 56 0 7 -3 10 -7 7 -3 -4 -13 2 -20 13 -8
11 -19 18 -24 15 -5 -4 -10 -1 -10 4 -1 6 -2 16 -3 21 0 6 -8 15 -16 20 -8 5
-15 13 -15 19 0 5 -11 19 -25 31 -14 12 -18 19 -10 15 8 -3 5 1 -7 10 -32 24
-72 62 -69 66 1 2 -9 15 -23 29 -13 14 -21 18 -17 10 4 -8 -5 -1 -19 15 -15
17 -24 23 -20 15 3 -8 -1 -6 -9 4 -9 11 -16 16 -16 10 0 -5 -5 -1 -11 9 -6 9
-14 15 -18 13 -5 -3 -18 5 -31 19 -12 13 -28 21 -34 19 -7 -3 -20 4 -30 15
-10 11 -25 17 -34 14 -11 -5 -13 -3 -7 7 6 9 4 11 -5 5 -7 -4 -15 -2 -19 4 -4
6 -21 14 -37 17 -46 8 -68 16 -76 27 -3 6 -17 11 -30 13 -12 1 -23 3 -23 4 0
0 -19 3 -43 5 -24 2 -50 9 -57 15 -8 7 -21 10 -29 7 -8 -3 -17 -3 -20 0 -9 10
-295 9 -312 0z m396 -353 c12 -12 11 -21 -15 -70 -38 -71 -46 -77 -78 -63 -45
21 -57 86 -24 128 27 32 86 35 117 5z m364 -145 l25 -12 -25 -43 c-14 -24 -23
-48 -19 -54 3 -5 1 -10 -4 -10 -6 0 -34 -47 -62 -105 -57 -114 -68 -122 -113
-80 -68 63 -73 165 -13 247 42 57 148 85 211 57z m-1121 -195 c26 -4 44 -11
41 -15 -3 -5 -1 -9 3 -9 13 0 8 -53 -5 -58 -7 -2 -12 1 -12 6 0 19 -25 6 -66
-33 -42 -42 -59 -70 -55 -94 2 -8 -3 -12 -12 -8 -9 3 -26 -7 -42 -24 -21 -25
-24 -33 -14 -45 9 -11 8 -18 -6 -34 -10 -11 -25 -19 -34 -18 -10 2 -15 -3 -13
-14 2 -13 -2 -16 -13 -12 -20 8 -79 -51 -69 -69 4 -7 4 -9 0 -6 -6 6 -66 -46
-66 -57 0 -8 -172 -174 -180 -174 -5 0 -12 -9 -15 -20 -3 -11 -13 -20 -22 -20
-10 0 -13 -6 -9 -16 4 -12 2 -15 -9 -11 -8 4 -25 -4 -39 -16 -21 -19 -22 -23
-8 -33 18 -13 10 -44 -13 -44 -8 0 -20 11 -26 24 l-11 24 -32 -19 c-17 -10
-38 -19 -48 -19 -9 0 -18 -6 -21 -12 -9 -25 -19 2 -30 78 -8 58 -7 102 2 177
32 254 161 428 387 518 127 51 299 72 437 53z m661 -85 c70 -18 152 -65 182
-105 15 -19 32 -34 38 -34 12 0 70 -65 102 -115 10 -16 25 -36 32 -44 13 -14
29 -48 30 -64 0 -5 8 -14 17 -21 15 -11 16 -15 1 -49 -8 -20 -22 -37 -30 -37
-9 0 -16 -4 -16 -8 0 -14 36 -43 44 -35 3 4 13 -3 22 -15 8 -12 22 -22 30 -22
20 0 18 -9 -6 -28 -15 -12 -22 -33 -26 -72 -3 -30 -7 -61 -9 -67 -5 -15 16
-13 27 2 4 5 10 6 15 2 12 -13 -13 -42 -36 -41 -21 1 -35 -23 -40 -67 0 -6 -7
-9 -14 -6 -8 3 -14 -4 -15 -20 -1 -14 -11 -33 -21 -42 -10 -9 -21 -28 -24 -41
-2 -14 -5 28 -6 94 -2 221 -50 437 -128 588 -41 79 -135 185 -207 235 -28 19
-42 33 -31 30 11 -3 42 -11 69 -18z m1180 -995 c9 -3 16 -16 16 -28 0 -24 -87
-171 -117 -199 -19 -17 -21 -16 -46 3 -32 25 -51 80 -42 120 8 36 49 88 79
100 25 10 88 12 110 4z m-2271 -103 c18 -17 17 -19 -9 -42 -15 -13 -43 -41
-63 -61 -43 -45 -55 -47 -77 -13 -30 46 4 124 61 138 30 8 68 -2 88 -22z
m1723 -111 c3 0 12 7 21 15 8 8 19 13 24 10 14 -9 11 -25 -6 -25 -26 0 -16
-37 19 -74 23 -25 39 -34 50 -30 14 5 16 2 12 -20 -3 -14 -1 -26 4 -26 5 0 21
-12 35 -26 14 -14 32 -23 40 -20 7 2 15 0 17 -5 2 -5 14 -11 28 -12 13 -1 35
-11 48 -24 13 -12 31 -22 40 -22 23 1 93 -11 102 -16 3 -2 19 2 34 10 25 13
24 10 -16 -47 -105 -149 -317 -281 -543 -338 -127 -32 -308 -33 -420 -2 -90
25 -295 104 -295 113 0 8 119 61 175 79 22 7 56 30 75 50 29 31 44 38 88 44
125 16 279 153 422 375 l35 54 3 -32 c2 -17 6 -31 8 -31z"/>
</g>
</svg>
