<?xml version="1.0" standalone="no"?>
<!DOCTYPE svg PUBLIC "-//W3C//DTD SVG 20010904//EN"
 "http://www.w3.org/TR/2001/REC-SVG-20010904/DTD/svg10.dtd">
<svg version="1.0" xmlns="http://www.w3.org/2000/svg"
 width="500.000000pt" height="500.000000pt" viewBox="0 0 500.000000 500.000000"
 preserveAspectRatio="xMidYMid meet">

<g transform="translate(0.000000,500.000000) scale(0.100000,-0.100000)"
fill="#3abff8" stroke="none">
<path d="M2624 4318 c-22 -31 -44 -77 -44 -93 0 -9 -5 -14 -12 -11 -7 2 -31
10 -53 17 -22 7 -51 23 -66 36 -42 39 -99 24 -99 -26 0 -27 26 -61 47 -61 13
0 43 -77 37 -94 -3 -8 14 -22 43 -37 26 -13 49 -24 50 -24 1 0 -3 -19 -10 -42
-10 -40 -11 -41 -34 -26 -19 12 -26 13 -38 3 -32 -27 1 -69 39 -48 9 5 20 8
23 5 9 -10 88 24 126 54 41 34 35 35 103 -16 23 -16 28 3 17 63 -14 75 -8 112
20 109 30 -3 33 21 3 32 -26 10 -47 63 -43 106 1 15 -5 21 -25 23 -23 3 -28
-1 -28 -17 0 -11 9 -25 20 -31 11 -6 20 -18 20 -28 0 -15 -10 -17 -60 -17 -58
0 -60 1 -60 25 0 32 18 57 45 62 12 2 20 11 20 23 0 23 -28 32 -41 13z m-206
-57 c21 -13 10 -46 -16 -49 -17 -3 -22 1 -22 21 0 35 13 45 38 28z m69 -75
l22 -34 -24 -22 -25 -23 -15 36 c-12 30 -13 41 -3 57 17 26 19 26 45 -14z m59
10 c15 -12 16 -17 7 -27 -10 -10 -17 -9 -33 6 -36 33 -14 50 26 21z m27 -56
c-3 -11 -7 -20 -9 -20 -2 0 -4 9 -4 20 0 11 4 20 9 20 5 0 7 -9 4 -20z m132
10 c34 -13 30 -46 -5 -42 -29 3 -70 28 -70 42 0 13 41 13 75 0z m-86 -29 c8
-15 5 -20 -16 -30 -22 -10 -25 -10 -19 4 3 9 6 23 6 31 0 20 17 17 29 -5z
m-69 -10 c15 -29 12 -61 -5 -61 -9 0 -30 7 -48 16 l-31 17 29 23 c36 29 41 29
55 5z m160 -36 c0 -23 -18 -27 -29 -7 -6 11 -8 22 -5 25 10 9 34 -4 34 -18z
m-55 -5 c26 -29 13 -51 -24 -40 -51 14 -56 21 -30 41 30 23 32 23 54 -1z m81
-78 c-4 -3 -14 2 -23 11 -14 14 -14 18 -3 33 13 15 15 14 23 -11 5 -14 6 -29
3 -33z m-177 -43 c-31 -20 -38 0 -17 47 l13 27 9 -32 c7 -25 6 -35 -5 -42z
m69 61 c13 0 12 -4 -6 -22 -19 -20 -24 -21 -32 -8 -15 24 -12 43 6 36 9 -3 23
-6 32 -6z"/>
<path d="M2970 4260 c-11 -11 -20 -27 -20 -35 0 -19 35 -55 53 -55 16 0 57 42
57 58 0 17 -37 52 -55 52 -8 0 -24 -9 -35 -20z"/>
<path d="M1746 4255 c-26 -26 -21 -81 9 -101 53 -35 120 26 93 84 -16 33 -76
43 -102 17z"/>
<path d="M2012 4248 c-18 -18 -15 -35 10 -60 l22 -22 -17 -130 c-9 -71 -15
-131 -14 -133 4 -3 297 94 304 100 2 2 -25 24 -59 48 -126 87 -177 133 -173
153 9 44 -42 75 -73 44z"/>
<path d="M2957 4093 c-52 -158 -74 -263 -51 -241 14 14 83 273 75 281 -5 5
-15 -12 -24 -40z"/>
<path d="M1823 4112 c-8 -5 7 -50 51 -152 73 -171 81 -186 90 -172 4 6 -13 60
-38 119 -77 187 -90 213 -103 205z"/>
<path d="M3869 4074 c-42 -7 -102 -23 -132 -34 -85 -32 -237 -135 -237 -161 0
-5 35 13 78 40 123 76 265 132 394 155 71 13 72 14 23 14 -27 0 -84 -6 -126
-14z"/>
<path d="M3036 4063 c-11 -11 -6 -23 9 -23 8 0 15 4 15 9 0 13 -16 22 -24 14z"/>
<path d="M3173 4045 c-18 -8 -33 -19 -33 -25 0 -5 -8 -10 -18 -10 -39 0 -54
-40 -26 -71 14 -16 14 -18 -7 -29 -18 -10 -23 -9 -31 4 -5 9 -20 16 -34 16
-31 0 -54 -41 -34 -65 17 -21 56 -19 72 4 7 10 27 25 43 34 26 13 34 13 55 1
36 -19 54 -17 82 9 44 41 52 65 33 94 -10 14 -26 28 -36 30 -10 3 -19 9 -19
14 0 12 -9 11 -47 -6z m4 -102 c-24 -24 -44 -4 -27 27 11 21 13 21 28 6 15
-15 15 -17 -1 -33z m-137 -53 c0 -11 -7 -20 -15 -20 -8 0 -15 9 -15 20 0 11 7
20 15 20 8 0 15 -9 15 -20z"/>
<path d="M3480 4041 c0 -24 25 -34 40 -16 15 18 5 35 -21 35 -12 0 -19 -7 -19
-19z"/>
<path d="M1511 4026 c2 -2 14 -8 25 -14 17 -9 25 -8 34 3 11 13 7 15 -25 15
-21 0 -36 -2 -34 -4z"/>
<path d="M1589 4004 c-11 -13 -6 -21 28 -56 l41 -40 31 23 c36 26 30 39 -30
70 -46 23 -53 23 -70 3z"/>
<path d="M1477 3990 c6 -22 28 -27 39 -9 3 6 0 15 -7 20 -24 15 -37 10 -32
-11z"/>
<path d="M3955 3995 c-136 -29 -402 -145 -567 -247 -54 -33 -100 -63 -103 -68
-2 -4 14 -18 38 -30 l42 -22 115 55 c213 102 346 126 404 72 37 -34 35 -88 -8
-193 -47 -113 -217 -374 -342 -525 -33 -40 -75 -92 -94 -117 -33 -43 -70 -86
-313 -360 -143 -161 -509 -524 -651 -644 -185 -157 -260 -214 -490 -369 -37
-25 -249 -130 -318 -158 -29 -12 -116 -41 -193 -66 -175 -56 -290 -67 -343
-34 -18 12 -37 33 -42 47 -27 69 0 226 66 392 l26 62 -23 59 c-28 71 -18 81
-127 -129 -119 -230 -232 -537 -232 -632 0 -40 27 -105 53 -126 77 -65 312
-54 559 24 304 97 717 294 1003 478 44 29 105 67 135 86 116 73 381 272 485
365 37 33 71 61 76 63 5 2 67 66 138 143 122 130 170 189 295 358 58 80 267
395 311 471 18 30 65 109 106 175 155 254 274 514 299 652 31 177 -91 265
-305 218z m126 -122 c105 -62 34 -276 -214 -648 -33 -49 -83 -119 -111 -155
-28 -36 -72 -94 -99 -130 -27 -36 -72 -92 -102 -125 -29 -33 -81 -94 -116
-136 -35 -42 -97 -114 -137 -160 -40 -46 -83 -96 -95 -110 -146 -170 -533
-559 -690 -692 -171 -146 -443 -341 -495 -354 -26 -6 -45 6 -34 22 8 11 155
136 270 229 181 146 507 458 691 661 35 39 78 86 96 105 169 185 556 643 610
723 14 21 54 76 90 123 36 47 77 106 92 132 15 26 37 61 49 77 35 46 122 224
136 277 23 90 -14 133 -127 146 l-70 8 45 11 c73 18 178 16 211 -4z m-696
-1411 c0 -16 -153 -198 -270 -321 -86 -91 -195 -178 -195 -156 0 10 219 257
374 422 64 67 91 84 91 55z m-2379 -1106 c-19 -152 51 -210 224 -186 111 15
277 69 419 136 63 30 119 54 125 54 13 0 -217 -141 -294 -180 -75 -38 -253
-98 -317 -106 -81 -10 -138 2 -174 39 -31 30 -31 32 -27 106 4 67 34 191 46
191 2 0 1 -24 -2 -54z"/>
<path d="M1426 3984 c-21 -21 -20 -24 9 -24 15 0 25 6 25 14 0 23 -17 28 -34
10z"/>
<path d="M1525 3958 c-11 -6 -22 -12 -24 -14 -2 -2 4 -22 14 -45 16 -35 22
-39 43 -34 13 3 35 13 49 22 l24 16 -32 33 c-36 37 -44 39 -74 22z"/>
<path d="M1364 3905 c-7 -19 -14 -48 -14 -65 0 -24 4 -30 23 -30 21 0 22 4 22
65 0 36 -4 65 -8 65 -4 0 -15 -16 -23 -35z"/>
<path d="M1415 3909 c-4 -11 -4 -36 -1 -54 7 -33 7 -33 44 -23 52 14 55 20 36
62 -14 28 -23 36 -45 36 -19 0 -30 -6 -34 -21z"/>
<path d="M1697 3907 l-28 -22 19 -36 c18 -35 19 -36 45 -22 30 15 32 25 16 72
-13 37 -16 37 -52 8z"/>
<path d="M3320 3905 c0 -9 5 -15 11 -13 6 2 11 8 11 13 0 5 -5 11 -11 13 -6 2
-11 -4 -11 -13z"/>
<path d="M1598 3856 l-47 -21 15 -35 c8 -19 16 -36 19 -38 2 -2 24 6 50 17 41
18 46 23 39 43 -16 53 -25 57 -76 34z"/>
<path d="M1480 3812 c-25 -8 -47 -16 -49 -18 -4 -4 39 -74 46 -74 3 0 23 5 44
12 43 12 47 24 22 66 l-18 29 -45 -15z"/>
<path d="M3140 3805 c0 -9 5 -15 11 -13 6 2 11 8 11 13 0 5 -5 11 -11 13 -6 2
-11 -4 -11 -13z"/>
<path d="M1728 3799 c-11 -6 -18 -22 -18 -39 0 -16 -4 -40 -10 -54 -15 -40 -3
-31 30 21 42 65 40 97 -2 72z"/>
<path d="M2366 3789 c-127 -17 -260 -55 -416 -122 -188 -79 -351 -205 -501
-384 -130 -155 -238 -379 -285 -590 -14 -60 -18 -124 -18 -278 0 -185 2 -208
27 -306 57 -224 163 -433 297 -586 107 -123 93 -117 180 -79 233 103 446 250
801 552 83 70 439 417 439 427 0 17 -225 327 -237 327 -17 0 -213 -141 -266
-190 l-59 -55 32 -43 c56 -78 158 -126 297 -140 l65 -7 -23 -29 c-22 -28 -24
-28 -98 -24 -78 5 -181 36 -211 63 -39 35 -37 20 22 -159 l39 -118 -38 -33
c-26 -22 -40 -29 -45 -21 -11 16 -83 237 -106 321 l-19 70 -21 -35 c-59 -96
-132 -397 -132 -544 0 -54 -1 -57 -40 -82 -22 -15 -44 -24 -48 -20 -4 4 -6 62
-5 129 2 210 53 402 157 589 49 89 52 98 37 111 -25 22 -118 67 -139 67 -28 0
-322 -315 -322 -344 1 -34 16 -37 91 -17 41 12 103 22 139 23 60 3 65 1 68
-18 5 -33 -42 -59 -132 -73 -43 -7 -91 -17 -108 -23 -35 -13 -35 -18 24 -193
49 -147 80 -209 125 -257 l35 -36 -25 -16 c-60 -40 -140 -60 -242 -60 -87 -1
-106 2 -148 24 -139 70 -228 210 -198 309 6 21 29 61 51 89 l40 50 -28 49
c-46 79 -61 116 -83 209 -28 119 -28 254 2 349 19 64 70 154 87 155 4 1 26 18
50 40 l44 39 -36 73 c-45 94 -53 150 -27 203 l19 40 1 -41 c1 -58 24 -126 63
-187 l33 -52 6 95 c13 190 66 324 172 429 52 50 69 62 86 56 29 -9 27 -18 -16
-56 -89 -77 -157 -237 -168 -395 l-7 -89 22 40 c44 79 130 191 177 231 65 55
167 123 203 136 17 5 30 13 30 18 0 7 -74 60 -163 117 l-51 32 79 37 c90 41
230 78 350 93 77 10 81 9 103 -13 l23 -23 -113 -6 c-103 -5 -256 -38 -306 -66
-19 -10 176 -141 211 -141 20 0 31 11 55 54 52 91 105 117 164 78 15 -9 60
-42 100 -73 70 -54 76 -57 148 -63 41 -4 116 -12 167 -18 l91 -11 51 42 c28
24 51 47 51 52 0 13 -93 58 -188 91 -95 32 -186 53 -283 63 -47 4 -73 13 -95
30 l-29 24 65 1 c143 0 367 -48 480 -103 87 -43 84 -42 77 -23 -9 24 9 20 27
-6 9 -12 16 -42 16 -65 0 -37 -6 -50 -41 -87 -34 -38 -37 -45 -22 -49 10 -3
50 -13 89 -22 63 -14 75 -21 107 -60 42 -49 45 -59 19 -51 -10 4 -84 21 -163
40 l-144 34 -50 -36 c-27 -19 -54 -39 -60 -44 -5 -5 26 -44 79 -97 l88 -88 61
29 c157 75 287 142 287 148 0 4 -49 55 -110 114 -104 101 -122 127 -101 140
11 7 91 -55 186 -145 40 -38 77 -69 82 -69 5 0 18 9 28 20 22 24 38 25 55 5
15 -18 0 -63 -30 -90 -10 -9 -16 -24 -14 -33 5 -22 -15 -53 -23 -34 -7 18 -18
15 -66 -15 -23 -15 -97 -55 -165 -88 l-123 -62 71 -86 71 -87 31 33 c51 54
220 257 286 345 73 96 75 83 -26 193 -215 233 -505 380 -839 424 -119 16 -203
17 -307 4z m-1062 -994 c-11 -53 -17 -153 -19 -291 -3 -180 -6 -216 -21 -245
l-18 -34 -9 55 c-12 76 -1 330 18 415 15 70 55 188 61 182 2 -1 -4 -39 -12
-82z"/>
<path d="M1355 3780 c-3 -5 1 -26 10 -46 11 -26 19 -34 31 -30 8 3 24 6 35 6
19 0 19 1 -3 40 -22 39 -58 54 -73 30z"/>
<path d="M1635 3753 c-16 -8 -31 -17 -33 -18 -1 -1 8 -21 21 -44 26 -46 39
-42 52 14 4 17 9 38 12 48 5 21 -12 21 -52 0z"/>
<path d="M973 3743 c-6 -16 10 -34 71 -79 l29 -21 -49 -66 c-27 -36 -52 -66
-55 -66 -3 -1 -26 15 -52 35 -47 37 -79 41 -85 12 -2 -11 23 -35 75 -73 353
-257 383 -274 383 -224 0 12 -19 32 -46 52 -98 68 -95 56 -39 126 28 33 54 61
58 61 4 0 32 -18 62 -41 55 -41 87 -47 93 -17 2 11 -37 46 -120 107 -68 50
-159 117 -204 151 -83 62 -110 72 -121 43z m221 -186 l30 -24 -53 -66 -52 -66
-49 30 c-28 17 -52 35 -56 40 -3 5 18 41 46 79 l52 70 26 -19 c15 -11 40 -31
56 -44z"/>
<path d="M1536 3710 l-39 -16 29 -18 c29 -20 94 -39 94 -27 0 3 -11 22 -23 42
l-22 36 -39 -17z"/>
<path d="M3720 3700 c-58 -24 -191 -97 -209 -115 -31 -30 -1 -24 71 15 82 44
178 80 214 80 12 0 29 -7 37 -15 13 -13 16 -13 21 1 20 51 -49 69 -134 34z"/>
<path d="M1416 3681 c-13 -20 65 -52 123 -50 21 1 28 3 16 6 -11 3 -34 16 -52
29 -32 24 -77 32 -87 15z"/>
<path d="M3772 3608 c-17 -22 -124 -240 -119 -244 14 -14 147 204 147 241 0
18 -14 20 -28 3z"/>
<path d="M2371 3484 c-12 -15 -21 -31 -21 -35 0 -5 30 -9 68 -9 l67 1 -39 34
c-22 19 -43 35 -47 35 -4 0 -17 -12 -28 -26z"/>
<path d="M2306 3328 c-6 -29 -2 -37 35 -71 32 -30 47 -37 68 -33 14 3 73 8
131 12 l105 6 -40 -36 c-40 -36 -49 -40 -117 -51 -44 -7 -46 -14 -15 -43 l22
-21 50 32 c28 18 73 50 101 73 l51 40 -54 62 -55 62 -138 0 -137 0 -7 -32z"/>
<path d="M2735 3310 c35 -36 39 -37 75 -6 l29 23 -46 7 c-87 12 -91 10 -58
-24z"/>
<path d="M2076 3305 c-112 -46 -245 -157 -295 -245 l-20 -37 119 48 c66 27
159 60 205 74 91 28 87 24 99 110 4 28 1 44 -11 57 -21 23 -26 23 -97 -7z"/>
<path d="M1050 3236 c-8 -11 -24 -13 -59 -9 -33 4 -57 1 -76 -10 -22 -11 -35
-12 -52 -4 -30 13 -41 2 -24 -25 10 -16 10 -26 0 -52 -15 -39 -58 -86 -78 -86
-14 0 -14 -1 -1 -10 8 -5 25 -10 37 -10 32 0 63 -65 49 -102 -13 -35 -2 -46
23 -23 27 24 91 9 108 -25 l12 -24 10 25 c5 15 26 36 46 48 30 17 40 19 58 9
20 -10 21 -9 9 5 -11 13 -10 22 8 57 13 26 20 56 19 80 -2 26 3 45 14 58 24
26 21 33 -9 26 -35 -9 -76 29 -68 63 7 26 -7 31 -26 9z"/>
<path d="M2735 3158 c-16 -12 -63 -46 -103 -75 l-73 -54 37 -52 c21 -29 46
-62 57 -74 l19 -22 129 65 129 65 -77 84 c-43 47 -80 85 -83 85 -3 -1 -18 -10
-35 -22z"/>
<path d="M4160 3140 c0 -13 7 -20 20 -20 13 0 20 7 20 20 0 13 -7 20 -20 20
-13 0 -20 -7 -20 -20z"/>
<path d="M2298 3118 l-38 -10 0 -100 0 -99 33 26 c17 14 55 44 83 67 l52 41
-31 43 c-32 46 -39 48 -99 32z"/>
<path d="M4282 3060 c-71 -34 -83 -43 -80 -62 5 -33 29 -33 105 2 98 45 98 45
98 71 0 37 -30 34 -123 -11z"/>
<path d="M576 3058 c-21 -30 -20 -54 4 -78 27 -27 56 -25 85 5 30 29 31 49 5
75 -27 27 -75 26 -94 -2z"/>
<path d="M2000 3031 c-80 -27 -180 -66 -222 -85 -67 -31 -78 -40 -78 -62 0
-49 81 -102 239 -155 96 -33 77 -38 176 51 l50 45 0 127 c0 79 -4 128 -10 128
-5 0 -75 -22 -155 -49z"/>
<path d="M2372 2894 c-91 -77 -102 -89 -98 -113 3 -14 8 -51 12 -81 3 -30 9
-60 13 -67 4 -7 29 8 71 44 36 31 99 78 140 105 41 27 77 51 79 53 5 5 -100
145 -108 145 -4 0 -52 -39 -109 -86z"/>
<path d="M4048 2922 c-73 -44 -92 -62 -68 -62 17 0 180 91 180 101 0 20 -39 7
-112 -39z"/>
<path d="M2876 2864 c-71 -35 -131 -66 -134 -68 -2 -3 15 -32 39 -65 24 -33
73 -100 108 -149 l64 -89 108 115 108 115 -32 41 c-53 68 -119 151 -126 157
-3 4 -64 -22 -135 -57z"/>
<path d="M4157 2811 c-22 -37 -21 -43 3 -59 19 -11 20 -10 15 11 -3 12 -1 35
4 50 14 36 0 35 -22 -2z"/>
<path d="M1546 2811 c-46 -22 -125 -106 -149 -159 -30 -67 -30 -219 0 -317 20
-64 77 -173 106 -202 9 -9 26 5 73 64 l60 76 -9 59 c-6 34 -15 58 -22 58 -13
0 -89 -78 -117 -120 l-16 -25 -17 38 c-16 38 -16 39 12 71 15 17 53 52 84 76
l55 44 -8 61 c-5 33 -12 112 -16 175 l-7 115 -29 -14z"/>
<path d="M4230 2772 c0 -15 -5 -33 -12 -40 -15 -15 -3 -16 20 -1 13 8 17 20
14 40 -5 37 -22 38 -22 1z"/>
<path d="M1660 2754 c0 -62 22 -214 31 -214 5 0 31 9 58 20 27 10 79 24 115
30 39 7 71 19 82 31 13 15 14 19 3 23 -119 35 -182 65 -251 119 l-38 29 0 -38z"/>
<path d="M860 2770 c-8 -5 -26 -10 -40 -10 -81 0 -228 -62 -282 -117 l-33 -34
45 -43 c53 -50 135 -84 229 -96 42 -6 67 -14 73 -24 13 -23 55 -20 68 4 9 16
19 20 48 18 33 -3 37 0 40 23 4 34 -24 46 -50 23 -16 -15 -22 -15 -43 -4 -19
10 -30 10 -54 0 -55 -22 -181 10 -269 69 l-44 29 34 25 c51 39 140 77 198 84
39 4 59 2 86 -13 34 -18 36 -18 48 -1 15 20 37 22 53 6 18 -18 43 -3 43 25 0
32 -16 41 -45 26 -19 -10 -27 -10 -46 4 -27 18 -38 20 -59 6z"/>
<path d="M3812 2696 l-52 -84 22 -79 c19 -65 23 -102 23 -228 0 -96 -5 -172
-14 -210 l-15 -60 -8 60 c-4 33 -12 70 -18 83 -5 13 -10 70 -10 127 0 97 -14
201 -29 217 -3 4 -24 -20 -46 -53 -21 -33 -47 -67 -57 -76 -24 -21 -23 -32 6
-62 42 -44 104 -180 116 -254 12 -76 1 -169 -28 -236 l-17 -41 0 122 c0 104
-4 133 -24 188 -23 64 -103 190 -121 190 -5 0 -21 -15 -35 -34 l-25 -33 24
-54 c60 -131 104 -358 90 -466 -7 -55 -40 -111 -51 -85 -3 8 -16 3 -43 -18
-49 -39 -147 -84 -230 -107 -50 -14 -102 -18 -226 -18 l-162 0 -38 -90 c-26
-60 -54 -105 -84 -137 l-46 -47 49 -11 c26 -5 71 -10 100 -11 43 0 48 -2 29
-10 -48 -19 -137 -27 -204 -17 -48 6 -74 6 -89 -2 -33 -18 -160 -24 -217 -10
-28 6 -77 27 -108 46 -50 30 -58 32 -81 21 l-25 -14 24 -15 c12 -8 33 -18 46
-22 49 -16 11 -17 -50 -1 -64 16 -65 15 -117 -9 -62 -28 -59 -32 59 -65 180
-49 422 -66 593 -40 314 47 599 196 816 425 192 202 307 438 366 746 17 91 20
302 5 393 -17 103 -31 165 -38 165 -4 0 -31 -38 -60 -84z"/>
<path d="M4051 2741 c-19 -14 -21 -20 -10 -26 8 -5 25 -15 39 -23 l25 -14 -25
20 c-24 20 -24 21 -6 41 23 26 9 27 -23 2z"/>
<path d="M4324 2732 c3 -5 -5 -17 -19 -26 -14 -9 -25 -23 -25 -32 0 -11 9 -8
35 12 36 27 41 44 15 52 -7 3 -10 0 -6 -6z"/>
<path d="M2146 2702 l-28 -30 32 -17 c17 -9 33 -15 35 -13 1 2 0 22 -4 46 l-6
43 -29 -29z"/>
<path d="M4255 2710 c-3 -5 -1 -10 4 -10 6 0 11 5 11 10 0 6 -2 10 -4 10 -3 0
-8 -4 -11 -10z"/>
<path d="M4125 2665 c-77 -76 39 -184 119 -110 34 32 35 77 1 110 -33 34 -87
34 -120 0z"/>
<path d="M967 2654 c-15 -16 -7 -53 14 -59 30 -10 58 19 43 43 -12 18 -45 28
-57 16z"/>
<path d="M4030 2634 c-37 -16 -33 -24 20 -38 21 -6 22 -5 7 4 -16 11 -16 13 5
30 28 23 15 25 -32 4z"/>
<path d="M730 2605 c0 -31 26 -43 46 -23 20 20 7 48 -22 48 -19 0 -24 -5 -24
-25z"/>
<path d="M4310 2620 c13 -9 13 -11 0 -21 -13 -9 -12 -10 3 -5 10 3 26 6 35 6
15 1 14 3 -2 15 -11 8 -27 15 -35 15 -14 0 -14 -1 -1 -10z"/>
<path d="M854 2605 c-4 -9 -2 -21 4 -27 16 -16 47 -5 47 17 0 26 -42 34 -51
10z"/>
<path d="M4280 2550 c0 -4 10 -14 21 -22 19 -12 20 -17 10 -36 -15 -29 0 -28
27 1 l21 22 -40 22 c-21 12 -39 18 -39 13z"/>
<path d="M4057 2527 l-28 -22 25 -23 c28 -24 32 -22 16 8 -8 16 -6 22 10 32
20 13 27 28 13 28 -5 0 -21 -10 -36 -23z"/>
<path d="M4250 2526 c0 -2 8 -10 18 -17 15 -13 16 -12 3 4 -13 16 -21 21 -21
13z"/>
<path d="M4115 2510 c-3 -5 -2 -10 4 -10 5 0 13 5 16 10 3 6 2 10 -4 10 -5 0
-13 -4 -16 -10z"/>
<path d="M1760 2487 c-59 -24 -71 -46 -52 -96 8 -22 11 -19 71 48 35 39 57 71
50 71 -8 0 -39 -11 -69 -23z"/>
<path d="M4226 2465 c9 -51 11 -54 20 -20 5 19 2 32 -10 43 -16 16 -17 15 -10
-23z"/>
<path d="M4157 2483 c-11 -10 -8 -61 3 -68 6 -4 10 10 10 34 0 42 -2 46 -13
34z"/>
<path d="M4030 2327 c0 -10 32 -17 118 -26 64 -6 138 -14 165 -17 38 -5 47 -3
47 9 0 17 -16 20 -194 37 -138 13 -136 13 -136 -3z"/>
<path d="M4422 2328 c-28 -28 -3 -88 37 -88 10 0 26 9 36 20 27 30 10 74 -30
78 -17 2 -36 -3 -43 -10z m56 -36 c3 -16 -2 -22 -16 -22 -24 0 -35 23 -19 39
16 16 31 8 35 -17z"/>
<path d="M723 2268 c-81 -41 -193 -149 -193 -186 0 -24 123 -136 180 -165 69
-35 153 -37 218 -6 50 24 151 114 171 153 13 23 12 29 -15 67 -33 48 -125 126
-171 145 -50 21 -141 17 -190 -8z m189 -39 c47 -24 148 -121 148 -142 0 -22
-97 -114 -144 -137 -60 -29 -131 -27 -192 6 -48 25 -144 110 -144 127 0 30
114 133 173 157 41 16 116 11 159 -11z"/>
<path d="M770 2183 c-46 -24 -68 -78 -52 -131 29 -97 180 -95 212 2 32 97 -67
177 -160 129z m120 -49 c11 -12 10 -18 -3 -32 -16 -15 -18 -15 -33 0 -19 18
-12 48 9 48 8 0 20 -7 27 -16z"/>
<path d="M4134 2175 c-12 -8 -27 -27 -33 -43 -10 -23 -21 -31 -48 -35 -48 -8
-73 -33 -73 -73 0 -38 25 -60 77 -70 18 -3 33 -12 33 -20 0 -8 13 -28 28 -45
23 -26 34 -31 55 -25 14 3 34 20 44 36 12 21 25 30 43 30 15 0 35 7 46 15 12
9 31 12 52 9 64 -12 108 49 64 89 -10 10 -26 17 -35 17 -9 0 -22 8 -29 18 -17
25 -51 42 -82 42 -18 0 -30 9 -40 29 -23 43 -64 54 -102 26z m46 -45 c0 -13
-7 -20 -20 -20 -13 0 -20 7 -20 20 0 13 7 20 20 20 13 0 20 -7 20 -20z m165
-84 c12 -35 -3 -60 -40 -64 -31 -4 -49 16 -33 35 5 7 7 24 4 37 -11 46 52 39
69 -8z m-289 -21 c-1 -25 -5 -35 -15 -33 -24 5 -36 34 -22 52 22 27 38 19 37
-19z"/>
<path d="M3381 2125 c-22 -24 -41 -47 -41 -51 0 -5 81 -106 151 -188 l27 -30
-8 51 c-15 92 -69 263 -83 263 -3 0 -23 -20 -46 -45z"/>
<path d="M1618 2084 c-26 -13 -49 -28 -53 -34 -3 -5 37 -54 89 -108 l95 -97
-40 125 c-22 69 -40 128 -42 132 -1 3 -23 -5 -49 -18z"/>
<path d="M3157 1895 c-65 -62 -134 -124 -153 -137 -28 -19 -39 -36 -56 -92
-25 -84 -23 -86 87 -86 213 0 389 61 442 151 15 25 14 28 -27 80 -62 78 -164
198 -170 198 -3 0 -58 -51 -123 -114z"/>
<path d="M1456 1948 c-37 -43 -52 -91 -42 -131 9 -39 83 -114 138 -141 41 -21
67 -26 123 -26 46 0 78 5 91 14 18 14 14 20 -77 108 -53 51 -118 121 -143 156
-26 34 -49 62 -51 62 -2 0 -19 -19 -39 -42z"/>
<path d="M3890 1851 c0 -7 26 -24 58 -38 31 -14 108 -49 171 -79 62 -30 117
-51 122 -48 27 16 -1 33 -208 123 -109 48 -143 58 -143 42z"/>
<path d="M879 1665 c-82 -170 -138 -332 -144 -419 l-5 -61 29 80 c54 149 132
332 196 461 29 59 30 63 12 73 -16 11 -25 -2 -88 -134z"/>
<path d="M776 1705 c-7 -20 23 -33 34 -14 5 7 6 17 4 21 -9 13 -32 9 -38 -7z"/>
<path d="M4310 1676 c-19 -24 -8 -61 19 -64 29 -4 53 22 44 46 -12 33 -43 41
-63 18z"/>
<path d="M3905 1670 c-4 -6 0 -19 9 -29 25 -27 22 -166 -4 -206 -44 -67 -9
-149 64 -149 79 0 113 62 76 138 -18 39 -20 55 -15 128 4 46 11 87 16 93 5 5
9 14 9 20 0 15 -146 19 -155 5z m99 -70 c-2 -150 -3 -160 -24 -160 -19 0 -20
7 -20 101 0 98 0 100 23 97 18 -2 22 -9 21 -38z"/>
<path d="M1262 1510 c-46 -33 -92 -104 -92 -142 0 -22 26 -58 43 -58 4 0 7 18
7 40 0 43 25 102 67 158 13 17 22 32 20 32 -2 0 -22 -13 -45 -30z"/>
<path d="M2635 1487 c-33 -24 -88 -60 -123 -82 l-63 -38 28 -29 c15 -15 49
-39 75 -52 62 -31 97 -21 140 38 26 36 98 168 98 180 0 5 -68 26 -85 26 -6 0
-38 -19 -70 -43z"/>
<path d="M3801 1467 c-21 -54 -24 -117 -7 -160 52 -138 216 -175 321 -73 58
55 73 108 53 191 -9 40 -18 60 -28 60 -11 0 -14 -9 -12 -30 11 -110 7 -141
-22 -179 -100 -131 -301 -54 -282 108 3 28 7 62 8 75 4 32 -20 39 -31 8z"/>
<path d="M2306 1282 c-54 -33 -57 -37 -40 -49 26 -19 111 -43 153 -43 47 0
111 11 111 19 0 3 -18 16 -40 29 -22 12 -55 36 -74 52 -18 17 -38 30 -42 29
-5 0 -35 -17 -68 -37z"/>
<path d="M3531 1306 c-8 -9 2 -18 42 -34 52 -22 113 -71 155 -126 17 -22 26
-26 34 -18 8 8 3 22 -19 52 -60 80 -187 156 -212 126z"/>
<path d="M721 1164 c0 -11 3 -14 6 -6 3 7 2 16 -1 19 -3 4 -6 -2 -5 -13z"/>
<path d="M3589 1143 c-29 -12 -39 -23 -49 -56 -11 -38 -10 -42 10 -59 12 -10
39 -18 59 -18 24 0 49 -9 71 -25 30 -22 36 -24 49 -10 13 13 12 18 -16 47 -18
18 -40 55 -50 82 -10 27 -23 50 -28 52 -6 1 -26 -5 -46 -13z"/>
<path d="M3233 1105 l-63 -20 0 -142 c0 -130 2 -145 20 -163 25 -25 61 -26 89
-2 18 15 21 31 26 157 4 77 3 151 -2 165 l-8 25 -62 -20z m57 -95 c0 -49 -2
-90 -5 -90 -13 0 -95 45 -98 54 -2 6 -2 30 1 53 4 39 7 43 46 57 22 8 44 15
49 15 4 1 7 -39 7 -89z"/>
<path d="M3340 1080 c0 -5 7 -10 16 -10 8 0 12 5 9 10 -3 6 -10 10 -16 10 -5
0 -9 -4 -9 -10z"/>
<path d="M1932 1034 c4 -21 22 -23 26 -1 2 10 -3 17 -13 17 -10 0 -15 -6 -13
-16z"/>
<path d="M3382 1013 c2 -10 10 -18 18 -18 22 0 18 29 -3 33 -14 3 -18 -1 -15
-15z"/>
<path d="M2176 940 c-20 -18 -36 -38 -36 -46 0 -7 -17 -22 -37 -33 -52 -26
-75 -69 -72 -133 3 -44 0 -54 -23 -73 -15 -13 -32 -25 -39 -27 -17 -6 -4 -38
16 -38 8 0 15 8 15 19 0 10 11 26 24 34 22 15 25 15 37 1 26 -32 68 -44 147
-44 60 0 83 4 92 15 24 28 -4 40 -95 40 -71 0 -88 3 -104 20 -18 17 -20 28
-14 73 7 65 37 93 79 73 14 -6 34 -11 44 -11 22 0 103 96 94 111 -3 6 -1 16 5
23 9 10 5 13 -16 14 -16 0 -40 3 -54 7 -21 5 -34 0 -63 -25z"/>
<path d="M3431 952 c-11 -21 3 -52 25 -52 24 0 53 -42 54 -77 0 -40 29 -60 61
-43 15 9 19 19 17 43 -3 28 -7 32 -35 35 -33 3 -68 42 -60 65 13 38 -43 64
-62 29z"/>
<path d="M1885 950 c-11 -17 5 -32 21 -19 7 6 11 15 8 20 -7 12 -21 11 -29 -1z"/>
<path d="M1448 898 c-38 -17 -68 -37 -68 -44 0 -20 8 -18 83 22 111 58 100 74
-15 22z"/>
<path d="M2670 910 c0 -10 9 -24 20 -30 17 -9 20 -21 20 -86 0 -69 -2 -78 -25
-96 -34 -27 -33 -70 2 -97 30 -24 58 -20 86 11 25 29 21 56 -13 88 -28 26 -30
33 -30 98 0 60 3 71 22 84 36 24 17 48 -37 48 -38 0 -45 -3 -45 -20z m40 0 c0
-5 -4 -10 -10 -10 -5 0 -10 5 -10 10 0 6 5 10 10 10 6 0 10 -4 10 -10z m40 0
c0 -5 -4 -10 -10 -10 -5 0 -10 5 -10 10 0 6 5 10 10 10 6 0 10 -4 10 -10z"/>
<path d="M2904 896 c-39 -17 -72 -59 -80 -101 -12 -67 53 -135 130 -135 31 0
45 7 77 39 34 34 39 44 39 85 0 88 -88 147 -166 112z m-1 -161 c1 -5 -6 -11
-15 -13 -11 -2 -18 3 -18 13 0 17 30 18 33 0z"/>
<path d="M2452 874 c-29 -20 -30 -74 -2 -99 11 -10 20 -26 20 -37 0 -10 4 -18
9 -18 5 0 11 -9 14 -21 3 -12 11 -19 18 -17 22 7 21 26 0 33 -30 9 -26 38 9
63 35 27 39 63 10 92 -24 24 -48 25 -78 4z"/>
<path d="M1812 848 c-18 -18 -14 -46 7 -58 25 -13 48 -4 56 21 12 38 -35 65
-63 37z"/>
<path d="M1594 795 c-8 -19 3 -35 26 -35 19 0 34 25 24 41 -8 14 -44 10 -50
-6z"/>
<path d="M2177 737 c-3 -9 0 -22 6 -32 17 -22 49 -9 45 19 -4 25 -43 34 -51
13z"/>
<path d="M1770 695 c-23 -53 -23 -55 -12 -55 14 0 52 89 42 95 -6 4 -19 -15
-30 -40z"/>
<path d="M2533 644 c-8 -21 13 -42 28 -27 13 13 5 43 -11 43 -6 0 -13 -7 -17
-16z"/>
</g>
</svg>
